<svg width="100%" viewBox="0 0 880 224" role="img" xmlns="http://www.w3.org/2000/svg"><title>学习追踪</title><desc>打卡热力图、统计、按轨道进度与荣枯鉴对联。</desc><rect x="1" y="1" width="878" height="222" rx="16" fill="#fafaf8" stroke="#e8e6df"/><text x="44" y="188" font-family="'Noto Serif SC','Songti SC',Georgia,serif" font-size="14" fill="#7a786f" letter-spacing="0.03em">富贵有常,其道乃实</text><text x="44" y="208" font-family="'Noto Serif SC','Songti SC',Georgia,serif" font-size="14" fill="#7a786f" letter-spacing="0.03em">福祸非命,其道乃察</text><text x="44" y="46" font-family="'JetBrains Mono',ui-monospace,monospace" font-size="11" letter-spacing="0.1em" fill="#8a8a84">study heatmap <tspan fill="#D85A30">2 / 77</tspan></text><rect x="44" y="58" width="11" height="11" rx="2" fill="#1D9E75"/><rect x="44" y="71" width="11" height="11" rx="2" fill="#1D9E75"/><rect x="44" y="84" width="11" height="11" rx="2" fill="#efe3df"/><rect x="44" y="97" width="11" height="11" rx="2" fill="#e4e2db"/><rect x="44" y="110" width="11" height="11" rx="2" fill="#e4e2db"/><rect x="44" y="123" width="11" height="11" rx="2" fill="#e4e2db"/><rect x="44" y="136" width="11" height="11" rx="2" fill="#e4e2db"/><rect x="57" y="58" width="11" height="11" rx="2" fill="#e4e2db"/><rect x="57" y="71" width="11" height="11" rx="2" fill="#e4e2db"/><rect x="57" y="84" width="11" height="11" rx="2" fill="#e4e2db"/><rect x="57" y="97" width="11" height="11" rx="2" fill="#e4e2db"/><rect x="57" y="110" width="11" height="11" rx="2" fill="#e4e2db"/><rect x="57" y="123" width="11" height="11" rx="2" fill="#e4e2db"/><rect x="57" y="136" width="11" height="11" rx="2" fill="#e4e2db"/><rect x="70" y="58" width="11" height="11" rx="2" fill="#e4e2db"/><rect x="70" y="71" width="11" height="11" rx="2" fill="#e4e2db"/><rect x="70" y="84" width="11" height="11" rx="2" fill="#e4e2db"/><rect x="70" y="97" width="11" height="11" rx="2" fill="#e4e2db"/><rect x="70" y="110" width="11" height="11" rx="2" fill="#e4e2db"/><rect x="70" y="123" width="11" height="11" rx="2" fill="#e4e2db"/><rect x="70" y="136" width="11" height="11" rx="2" fill="#e4e2db"/><rect x="83" y="58" width="11" height="11" rx="2" fill="#e4e2db"/><rect x="83" y="71" width="11" height="11" rx="2" fill="#e4e2db"/><rect x="83" y="84" width="11" height="11" rx="2" fill="#e4e2db"/><rect x="83" y="97" width="11" height="11" rx="2" fill="#e4e2db"/><rect x="83" y="110" width="11" height="11" rx="2" fill="#e4e2db"/><rect x="83" y="123" width="11" height="11" rx="2" fill="#e4e2db"/><rect x="83" y="136" width="11" height="11" rx="2" fill="#e4e2db"/><rect x="96" y="58" width="11" height="11" rx="2" fill="#e4e2db"/><rect x="96" y="71" width="11" height="11" rx="2" fill="#e4e2db"/><rect x="96" y="84" width="11" height="11" rx="2" fill="#e4e2db"/><rect x="96" y="97" width="11" height="11" rx="2" fill="#e4e2db"/><rect x="96" y="110" width="11" height="11" rx="2" fill="#e4e2db"/><rect x="96" y="123" width="11" height="11" rx="2" fill="#e4e2db"/><rect x="96" y="136" width="11" height="11" rx="2" fill="#e4e2db"/><rect x="109" y="58" width="11" height="11" rx="2" fill="#e4e2db"/><rect x="109" y="71" width="11" height="11" rx="2" fill="#e4e2db"/><rect x="109" y="84" width="11" height="11" rx="2" fill="#e4e2db"/><rect x="109" y="97" width="11" height="11" rx="2" fill="#e4e2db"/><rect x="109" y="110" width="11" height="11" rx="2" fill="#e4e2db"/><rect x="109" y="123" width="11" height="11" rx="2" fill="#e4e2db"/><rect x="109" y="136" width="11" height="11" rx="2" fill="#e4e2db"/><rect x="122" y="58" width="11" height="11" rx="2" fill="#e4e2db"/><rect x="122" y="71" width="11" height="11" rx="2" fill="#e4e2db"/><rect x="122" y="84" width="11" height="11" rx="2" fill="#e4e2db"/><rect x="122" y="97" width="11" height="11" rx="2" fill="#e4e2db"/><rect x="122" y="110" width="11" height="11" rx="2" fill="#e4e2db"/><rect x="122" y="123" width="11" height="11" rx="2" fill="#e4e2db"/><rect x="122" y="136" width="11" height="11" rx="2" fill="#e4e2db"/><rect x="135" y="58" width="11" height="11" rx="2" fill="#e4e2db"/><rect x="135" y="71" width="11" height="11" rx="2" fill="#e4e2db"/><rect x="135" y="84" width="11" height="11" rx="2" fill="#e4e2db"/><rect x="135" y="97" width="11" height="11" rx="2" fill="#e4e2db"/><rect x="135" y="110" width="11" height="11" rx="2" fill="#e4e2db"/><rect x="135" y="123" width="11" height="11" rx="2" fill="#e4e2db"/><rect x="135" y="136" width="11" height="11" rx="2" fill="#e4e2db"/><rect x="148" y="58" width="11" height="11" rx="2" fill="#e4e2db"/><rect x="148" y="71" width="11" height="11" rx="2" fill="#e4e2db"/><rect x="148" y="84" width="11" height="11" rx="2" fill="#e4e2db"/><rect x="148" y="97" width="11" height="11" rx="2" fill="#e4e2db"/><rect x="148" y="110" width="11" height="11" rx="2" fill="#e4e2db"/><rect x="148" y="123" width="11" height="11" rx="2" fill="#e4e2db"/><rect x="148" y="136" width="11" height="11" rx="2" fill="#e4e2db"/><rect x="161" y="58" width="11" height="11" rx="2" fill="#e4e2db"/><rect x="161" y="71" width="11" height="11" rx="2" fill="#e4e2db"/><rect x="161" y="84" width="11" height="11" rx="2" fill="#e4e2db"/><rect x="161" y="97" width="11" height="11" rx="2" fill="#e4e2db"/><rect x="161" y="110" width="11" height="11" rx="2" fill="#e4e2db"/><rect x="161" y="123" width="11" height="11" rx="2" fill="#e4e2db"/><rect x="161" y="136" width="11" height="11" rx="2" fill="#e4e2db"/><rect x="174" y="58" width="11" height="11" rx="2" fill="#e4e2db"/><rect x="174" y="71" width="11" height="11" rx="2" fill="#e4e2db"/><rect x="174" y="84" width="11" height="11" rx="2" fill="#e4e2db"/><rect x="174" y="97" width="11" height="11" rx="2" fill="#e4e2db"/><rect x="174" y="110" width="11" height="11" rx="2" fill="#e4e2db"/><rect x="174" y="123" width="11" height="11" rx="2" fill="#e4e2db"/><rect x="174" y="136" width="11" height="11" rx="2" fill="#e4e2db"/><g font-family="'JetBrains Mono',ui-monospace,monospace" font-size="11" fill="#8a8a84"><rect x="44" y="154" width="11" height="11" rx="2" fill="#1D9E75"/><text x="60" y="163">done</text><rect x="108" y="154" width="11" height="11" rx="2" fill="#e4e2db"/><text x="124" y="163">todo</text></g><text x="440" y="46" font-family="'Noto Serif SC','Songti SC',Georgia,serif" font-weight="900" font-size="26" fill="#D85A30">2 / 77</text><text x="440" y="64" font-family="'JetBrains Mono',ui-monospace,monospace" font-size="10" letter-spacing="0.05em" fill="#8a8a84">completed</text><text x="552" y="46" font-family="'Noto Serif SC','Songti SC',Georgia,serif" font-weight="900" font-size="26" fill="#D85A30">3%</text><text x="552" y="64" font-family="'JetBrains Mono',ui-monospace,monospace" font-size="10" letter-spacing="0.05em" fill="#8a8a84">progress</text><text x="664" y="46" font-family="'Noto Serif SC','Songti SC',Georgia,serif" font-weight="900" font-size="26" fill="#D85A30">0</text><text x="664" y="64" font-family="'JetBrains Mono',ui-monospace,monospace" font-size="10" letter-spacing="0.05em" fill="#8a8a84">streak</text><text x="776" y="46" font-family="'Noto Serif SC','Songti SC',Georgia,serif" font-weight="900" font-size="26" fill="#D85A30">7h</text><text x="776" y="64" font-family="'JetBrains Mono',ui-monospace,monospace" font-size="10" letter-spacing="0.05em" fill="#8a8a84">hours</text><circle cx="446" cy="92" r="4.5" fill="#0E9E8E"/><text x="458" y="96" font-family="'Noto Sans SC',sans-serif" font-size="13" fill="#5F5E5A">Demo</text><rect x="572" y="89" width="190" height="6" rx="3" fill="#eceae3"/><rect x="572" y="89" width="6" height="6" rx="3" fill="#0E9E8E"/><text x="772" y="96" font-family="'JetBrains Mono',ui-monospace,monospace" font-size="11" fill="#8a8a84"><tspan fill="#2C2C2A">1</tspan>/29 · 3%</text><circle cx="446" cy="118" r="4.5" fill="#1D9E75"/><text x="458" y="122" font-family="'Noto Sans SC',sans-serif" font-size="13" fill="#5F5E5A">Robotics</text><rect x="572" y="115" width="190" height="6" rx="3" fill="#eceae3"/><rect x="572" y="115" width="13" height="6" rx="3" fill="#1D9E75"/><text x="772" y="122" font-family="'JetBrains Mono',ui-monospace,monospace" font-size="11" fill="#8a8a84"><tspan fill="#2C2C2A">1</tspan>/14 · 7%</text><circle cx="446" cy="144" r="4.5" fill="#D85A30"/><text x="458" y="148" font-family="'Noto Sans SC',sans-serif" font-size="13" fill="#5F5E5A">Papers / Theory</text><rect x="572" y="141" width="190" height="6" rx="3" fill="#eceae3"/><rect x="572" y="141" width="0" height="6" rx="3" fill="#D85A30"/><text x="772" y="148" font-family="'JetBrains Mono',ui-monospace,monospace" font-size="11" fill="#8a8a84"><tspan fill="#2C2C2A">0</tspan>/17 · 0%</text><circle cx="446" cy="170" r="4.5" fill="#4F7396"/><text x="458" y="174" font-family="'Noto Sans SC',sans-serif" font-size="13" fill="#5F5E5A">AI · Repr.</text><rect x="572" y="167" width="190" height="6" rx="3" fill="#eceae3"/><rect x="572" y="167" width="0" height="6" rx="3" fill="#4F7396"/><text x="772" y="174" font-family="'JetBrains Mono',ui-monospace,monospace" font-size="11" fill="#8a8a84"><tspan fill="#2C2C2A">0</tspan>/8 · 0%</text><circle cx="446" cy="196" r="4.5" fill="#8a8a84"/><text x="458" y="200" font-family="'Noto Sans SC',sans-serif" font-size="13" fill="#5F5E5A">Synthesis</text><rect x="572" y="193" width="190" height="6" rx="3" fill="#eceae3"/><rect x="572" y="193" width="0" height="6" rx="3" fill="#8a8a84"/><text x="772" y="200" font-family="'JetBrains Mono',ui-monospace,monospace" font-size="11" fill="#8a8a84"><tspan fill="#2C2C2A">0</tspan>/9 · 0%</text></svg>
